<svg width="16" height="16" viewBox="0 0 16 16" xmlns="http://www.w3.org/2000/svg">
<path d="M5.33334 3.83337C5.06001 3.83337 4.83334 3.60671 4.83334 3.33337V1.33337C4.83334 1.06004 5.06001 0.833374 5.33334 0.833374C5.60668 0.833374 5.83334 1.06004 5.83334 1.33337V3.33337C5.83334 3.60671 5.60668 3.83337 5.33334 3.83337Z" />
<path d="M10.6667 3.83337C10.3933 3.83337 10.1667 3.60671 10.1667 3.33337V1.33337C10.1667 1.06004 10.3933 0.833374 10.6667 0.833374C10.94 0.833374 11.1667 1.06004 11.1667 1.33337V3.33337C11.1667 3.60671 10.94 3.83337 10.6667 3.83337Z" />
<path d="M5.66667 9.66667C5.58 9.66667 5.49333 9.64668 5.41333 9.61335C5.32667 9.58001 5.26 9.53333 5.19333 9.47333C5.07333 9.34667 5 9.18 5 9C5 8.91334 5.02 8.82667 5.05333 8.74667C5.08667 8.66667 5.13333 8.59334 5.19333 8.52668C5.26 8.46668 5.32667 8.42 5.41333 8.38666C5.65333 8.28666 5.95333 8.34001 6.14 8.52668C6.26 8.65334 6.33333 8.82667 6.33333 9C6.33333 9.04 6.32667 9.08668 6.32 9.13335C6.31333 9.17335 6.3 9.21334 6.28 9.25334C6.26667 9.29334 6.24667 9.33334 6.22 9.37334C6.2 9.40667 6.16667 9.44 6.14 9.47333C6.01333 9.59333 5.84 9.66667 5.66667 9.66667Z" />
<path d="M8.00001 9.6667C7.91334 9.6667 7.82668 9.64671 7.74668 9.61338C7.66001 9.58005 7.59334 9.53337 7.52668 9.47337C7.40668 9.3467 7.33334 9.18004 7.33334 9.00004C7.33334 8.91337 7.35334 8.8267 7.38668 8.7467C7.42001 8.6667 7.46668 8.59338 7.52668 8.52671C7.59334 8.46671 7.66001 8.42003 7.74668 8.3867C7.98668 8.28003 8.28668 8.34004 8.47334 8.52671C8.59334 8.65338 8.66668 8.8267 8.66668 9.00004C8.66668 9.04004 8.66001 9.08671 8.65334 9.13338C8.64668 9.17338 8.63334 9.21337 8.61334 9.25337C8.60001 9.29337 8.58001 9.33337 8.55334 9.37337C8.53334 9.4067 8.50001 9.44003 8.47334 9.47337C8.34668 9.59337 8.17334 9.6667 8.00001 9.6667Z" />
<path d="M10.3333 9.6667C10.2467 9.6667 10.16 9.64671 10.08 9.61338C9.99332 9.58005 9.92666 9.53337 9.85999 9.47337C9.83332 9.44003 9.80666 9.4067 9.77999 9.37337C9.75332 9.33337 9.73332 9.29337 9.71999 9.25337C9.69999 9.21337 9.68666 9.17338 9.67999 9.13338C9.67332 9.08671 9.66666 9.04004 9.66666 9.00004C9.66666 8.8267 9.73999 8.65338 9.85999 8.52671C9.92666 8.46671 9.99332 8.42003 10.08 8.3867C10.3267 8.28003 10.62 8.34004 10.8067 8.52671C10.9267 8.65338 11 8.8267 11 9.00004C11 9.04004 10.9933 9.08671 10.9867 9.13338C10.98 9.17338 10.9667 9.21337 10.9467 9.25337C10.9333 9.29337 10.9133 9.33337 10.8867 9.37337C10.8667 9.4067 10.8333 9.44003 10.8067 9.47337C10.68 9.59337 10.5067 9.6667 10.3333 9.6667Z" />
<path d="M5.66667 12C5.58 12 5.49333 11.9801 5.41333 11.9467C5.33333 11.9134 5.26 11.8667 5.19333 11.8067C5.07333 11.68 5 11.5067 5 11.3334C5 11.2467 5.02 11.16 5.05333 11.08C5.08667 10.9934 5.13333 10.92 5.19333 10.86C5.44 10.6134 5.89333 10.6134 6.14 10.86C6.26 10.9867 6.33333 11.16 6.33333 11.3334C6.33333 11.5067 6.26 11.68 6.14 11.8067C6.01333 11.9267 5.84 12 5.66667 12Z" />
<path d="M8.00001 12C7.82668 12 7.65334 11.9267 7.52668 11.8067C7.40668 11.68 7.33334 11.5067 7.33334 11.3334C7.33334 11.2467 7.35334 11.16 7.38668 11.08C7.42001 10.9934 7.46668 10.92 7.52668 10.86C7.77334 10.6134 8.22668 10.6134 8.47334 10.86C8.53334 10.92 8.58001 10.9934 8.61334 11.08C8.64668 11.16 8.66668 11.2467 8.66668 11.3334C8.66668 11.5067 8.59334 11.68 8.47334 11.8067C8.34668 11.9267 8.17334 12 8.00001 12Z" />
<path d="M10.3333 12.0001C10.16 12.0001 9.98666 11.9267 9.85999 11.8067C9.79999 11.7467 9.75332 11.6734 9.71999 11.5867C9.68666 11.5067 9.66666 11.4201 9.66666 11.3334C9.66666 11.2467 9.68666 11.1601 9.71999 11.0801C9.75332 10.9934 9.79999 10.9201 9.85999 10.8601C10.0133 10.7067 10.2467 10.6334 10.46 10.6801C10.5067 10.6867 10.5467 10.7001 10.5867 10.7201C10.6267 10.7334 10.6667 10.7534 10.7067 10.7801C10.74 10.8001 10.7733 10.8334 10.8067 10.8601C10.9267 10.9867 11 11.1601 11 11.3334C11 11.5067 10.9267 11.6801 10.8067 11.8067C10.68 11.9267 10.5067 12.0001 10.3333 12.0001Z" />
<path d="M13.6667 6.55994H2.33334C2.06001 6.55994 1.83334 6.33327 1.83334 6.05994C1.83334 5.7866 2.06001 5.55994 2.33334 5.55994H13.6667C13.94 5.55994 14.1667 5.7866 14.1667 6.05994C14.1667 6.33327 13.94 6.55994 13.6667 6.55994Z" />
<path d="M10.6667 15.1667H5.33333C2.9 15.1667 1.5 13.7667 1.5 11.3334V5.66671C1.5 3.23337 2.9 1.83337 5.33333 1.83337H10.6667C13.1 1.83337 14.5 3.23337 14.5 5.66671V11.3334C14.5 13.7667 13.1 15.1667 10.6667 15.1667ZM5.33333 2.83337C3.42667 2.83337 2.5 3.76004 2.5 5.66671V11.3334C2.5 13.24 3.42667 14.1667 5.33333 14.1667H10.6667C12.5733 14.1667 13.5 13.24 13.5 11.3334V5.66671C13.5 3.76004 12.5733 2.83337 10.6667 2.83337H5.33333Z" />
</svg>
