<svg width="12" height="12" viewBox="0 0 12 12" xmlns="http://www.w3.org/2000/svg">
<path d="M7.98499 11.375H3.98499C2.27499 11.375 1.60999 10.71 1.60999 9V5C1.60999 4.795 1.77999 4.625 1.98499 4.625H9.98499C10.19 4.625 10.36 4.795 10.36 5V9C10.36 10.71 9.69499 11.375 7.98499 11.375ZM2.35999 5.375V9C2.35999 10.29 2.69499 10.625 3.98499 10.625H7.98499C9.27499 10.625 9.60998 10.29 9.60998 9V5.375H2.35999Z" />
<path d="M9.75 5.375H2.25C1.375 5.375 0.875 4.875 0.875 4V3.5C0.875 2.625 1.375 2.125 2.25 2.125H9.75C10.6 2.125 11.125 2.65 11.125 3.5V4C11.125 4.85 10.6 5.375 9.75 5.375ZM2.25 2.875C1.795 2.875 1.625 3.045 1.625 3.5V4C1.625 4.455 1.795 4.625 2.25 4.625H9.75C10.19 4.625 10.375 4.44 10.375 4V3.5C10.375 3.06 10.19 2.875 9.75 2.875H2.25Z" />
<path d="M5.81999 2.875H3.05999C2.95499 2.875 2.85499 2.83 2.78499 2.755C2.47999 2.42 2.48999 1.905 2.80999 1.585L3.51999 0.875002C3.84999 0.545002 4.39499 0.545002 4.72499 0.875002L6.08499 2.235C6.18999 2.34 6.22499 2.505 6.16499 2.645C6.10999 2.785 5.97499 2.875 5.81999 2.875ZM3.33499 2.125H4.91999L4.19499 1.405C4.15499 1.365 4.08999 1.365 4.04999 1.405L3.33999 2.115C3.33999 2.12 3.33499 2.12 3.33499 2.125Z" />
<path d="M8.93501 2.875H6.17501C6.02501 2.875 5.88501 2.785 5.83001 2.645C5.77001 2.505 5.80501 2.345 5.91001 2.235L7.27001 0.875002C7.60001 0.545002 8.14501 0.545002 8.47501 0.875002L9.18501 1.585C9.50501 1.905 9.52001 2.42 9.21001 2.755C9.14001 2.83 9.04001 2.875 8.93501 2.875ZM7.08501 2.125H8.67001C8.66501 2.12 8.66501 2.12 8.66001 2.115L7.95001 1.405C7.91001 1.365 7.84501 1.365 7.80501 1.405L7.08501 2.125Z" />
<path d="M4.97 8.45C4.83 8.45 4.685 8.415 4.555 8.345C4.27 8.19 4.095 7.895 4.095 7.575V5C4.095 4.795 4.265 4.625 4.47 4.625H7.49C7.695 4.625 7.865 4.795 7.865 5V7.565C7.865 7.89 7.69 8.185 7.405 8.335C7.12 8.49 6.775 8.47 6.505 8.29L6.06 7.99C6.02 7.96 5.965 7.96 5.92 7.99L5.45 8.3C5.305 8.4 5.135 8.45 4.97 8.45ZM4.845 5.375V7.57C4.845 7.635 4.885 7.665 4.91 7.68C4.935 7.695 4.985 7.71 5.04 7.675L5.51 7.365C5.805 7.17 6.185 7.17 6.475 7.365L6.92 7.665C6.975 7.7 7.025 7.685 7.05 7.67C7.075 7.655 7.115 7.625 7.115 7.56V5.37H4.845V5.375Z" />
</svg>
