<svg width="12" height="12" viewBox="0 0 12 12" xmlns="http://www.w3.org/2000/svg">
<path d="M6.075 9.675C5.87 9.675 5.7 9.505 5.7 9.3V8.25C5.7 8.045 5.87 7.875 6.075 7.875C6.28 7.875 6.45 8.045 6.45 8.25V9.3C6.45 9.505 6.28 9.675 6.075 9.675Z" />
<path d="M8.95 11.375H3.2V10.5C3.2 9.74 3.815 9.125 4.575 9.125H7.575C8.335 9.125 8.95 9.74 8.95 10.5V11.375ZM3.95 10.625H8.2V10.5C8.2 10.155 7.92 9.875 7.575 9.875H4.575C4.23 9.875 3.95 10.155 3.95 10.5V10.625V10.625Z" />
<path d="M9.075 11.375H3.075C2.87 11.375 2.7 11.205 2.7 11C2.7 10.795 2.87 10.625 3.075 10.625H9.075C9.28 10.625 9.45 10.795 9.45 11C9.45 11.205 9.28 11.375 9.075 11.375Z" />
<path d="M9.215 6.22003C9.11 6.22003 9.005 6.17503 8.93 6.09003C8.835 5.98003 8.81 5.82503 8.87 5.69503C9.04 5.30503 9.125 4.89003 9.125 4.45503V2.95503C9.125 2.78003 9.095 2.61003 9.035 2.43003C9.03 2.41503 9.025 2.39503 9.02 2.37503C9.005 2.30003 9 2.22503 9 2.15503C9 1.95003 9.17 1.78003 9.375 1.78003H9.675C10.57 1.78003 11.3 2.53003 11.3 3.45503C11.3 4.22003 10.985 4.97503 10.44 5.52003C10.43 5.53003 10.4 5.55503 10.395 5.56003C10.1 5.80503 9.765 6.08003 9.315 6.20503C9.28 6.21503 9.25 6.22003 9.215 6.22003ZM9.84 2.54503C9.865 2.68003 9.875 2.82003 9.875 2.95503V4.45503C9.875 4.66003 9.86 4.85503 9.83 5.05503C9.86 5.03003 9.885 5.01003 9.915 4.98503C10.315 4.58503 10.55 4.02503 10.55 3.45503C10.55 3.00503 10.245 2.62503 9.84 2.54503Z" />
<path d="M2.79 6.19999C2.75 6.19999 2.715 6.19499 2.675 6.17999C2.265 6.04999 1.88 5.80999 1.56 5.48999C0.984997 4.85499 0.699997 4.15999 0.699997 3.42499C0.699997 2.51499 1.415 1.79999 2.325 1.79999H2.65C2.775 1.79999 2.895 1.86499 2.965 1.96999C3.035 2.07499 3.045 2.20999 2.995 2.32499C2.915 2.50499 2.875 2.70999 2.875 2.92499V4.42499C2.875 4.85499 2.96 5.27499 3.135 5.67499C3.195 5.80999 3.165 5.96499 3.07 6.07499C2.995 6.15499 2.895 6.19999 2.79 6.19999ZM2.15 2.56499C1.745 2.64499 1.45 2.99499 1.45 3.42499C1.45 3.96999 1.67 4.49499 2.105 4.97499C2.125 4.99999 2.15 5.01999 2.175 5.03999C2.14 4.83499 2.125 4.62999 2.125 4.42499V2.92499C2.125 2.80499 2.135 2.68499 2.15 2.56499Z" />
<path d="M6 8.375C3.865 8.375 2.125 6.635 2.125 4.5V3C2.125 1.69 3.19 0.625 4.5 0.625H7.5C8.81 0.625 9.875 1.69 9.875 3V4.5C9.875 6.635 8.135 8.375 6 8.375ZM4.5 1.375C3.605 1.375 2.875 2.105 2.875 3V4.5C2.875 6.225 4.275 7.625 6 7.625C7.725 7.625 9.125 6.225 9.125 4.5V3C9.125 2.105 8.395 1.375 7.5 1.375H4.5Z" />
</svg>
