<svg width="16" height="16" viewBox="0 0 16 16" xmlns="http://www.w3.org/2000/svg">
<path d="M13.0676 8.82486L12.3558 9.53668C12.1625 9.72996 11.842 9.72996 11.6487 9.53668C11.4554 9.34341 11.4554 9.02285 11.6487 8.82958L12.3605 8.11776C13.5956 6.88268 13.5956 4.87449 12.3605 3.63941C11.1254 2.40433 9.11724 2.40433 7.88216 3.63941L7.17505 4.34652C6.98178 4.5398 6.66122 4.5398 6.46795 4.34652C6.27467 4.15324 6.26996 3.8374 6.46795 3.63941L7.17505 2.93231C8.8014 1.30596 11.4413 1.30596 13.0676 2.93231C14.694 4.55865 14.694 7.19852 13.0676 8.82486Z" />
<path d="M9.53209 12.3605L8.82498 13.0676C7.19863 14.694 4.55877 14.694 2.93242 13.0676C1.30608 11.4413 1.30608 8.80141 2.93242 7.17506L3.63953 6.46795C3.83281 6.27468 4.15336 6.27468 4.34664 6.46795C4.53991 6.66123 4.53991 6.98178 4.34664 7.17506L3.63953 7.88217C2.40445 9.11725 2.40445 11.1254 3.63953 12.3605C4.87461 13.5956 6.88279 13.5956 8.11787 12.3605L8.82498 11.6534C9.01825 11.4601 9.33881 11.4601 9.53209 11.6534C9.72536 11.8467 9.72536 12.1672 9.53209 12.3605Z" />
<path d="M10.2392 6.46794L6.46795 10.2392C6.27467 10.4324 5.95412 10.4324 5.76084 10.2392C5.56757 10.0459 5.56757 9.72534 5.76084 9.53207L9.53208 5.76083C9.72535 5.56756 10.0459 5.56756 10.2392 5.76083C10.4325 5.95411 10.4325 6.27466 10.2392 6.46794Z" />
</svg>
