<svg width="20" height="20" viewBox="0 0 20 20" xmlns="http://www.w3.org/2000/svg">
<path d="M7.22499 18.9584H1.66666C1.32499 18.9584 1.04166 18.675 1.04166 18.3334V13.3334C1.04166 12.0667 2.06666 11.0417 3.33332 11.0417H7.22499C7.56666 11.0417 7.84999 11.325 7.84999 11.6667V18.3334C7.84999 18.675 7.56666 18.9584 7.22499 18.9584ZM2.29166 17.7084H6.59999V12.2917H3.33332C2.75832 12.2917 2.29166 12.7584 2.29166 13.3334V17.7084Z" />
<path d="M7.22499 18.9584H1.66666C1.32499 18.9584 1.04166 18.675 1.04166 18.3334V13.3334C1.04166 12.0667 2.06666 11.0417 3.33332 11.0417H7.22499C7.56666 11.0417 7.84999 11.325 7.84999 11.6667V18.3334C7.84999 18.675 7.56666 18.9584 7.22499 18.9584ZM2.29166 17.7084H6.59999V12.2917H3.33332C2.75832 12.2917 2.29166 12.7584 2.29166 13.3334V17.7084Z" fill-opacity="0.2"/>
<path d="M12.7751 18.9583H7.2168C6.87513 18.9583 6.5918 18.675 6.5918 18.3333V9.99998C6.5918 8.73331 7.6168 7.70831 8.88346 7.70831H11.1085C12.3751 7.70831 13.4001 8.73331 13.4001 9.99998V18.3333C13.4001 18.675 13.1251 18.9583 12.7751 18.9583ZM7.85013 17.7083H12.1585V9.99998C12.1585 9.42498 11.6918 8.95831 11.1168 8.95831H8.8918C8.3168 8.95831 7.85013 9.42498 7.85013 9.99998V17.7083Z" />
<path d="M12.7751 18.9583H7.2168C6.87513 18.9583 6.5918 18.675 6.5918 18.3333V9.99998C6.5918 8.73331 7.6168 7.70831 8.88346 7.70831H11.1085C12.3751 7.70831 13.4001 8.73331 13.4001 9.99998V18.3333C13.4001 18.675 13.1251 18.9583 12.7751 18.9583ZM7.85013 17.7083H12.1585V9.99998C12.1585 9.42498 11.6918 8.95831 11.1168 8.95831H8.8918C8.3168 8.95831 7.85013 9.42498 7.85013 9.99998V17.7083Z"  fill-opacity="0.2"/>
<path d="M18.3334 18.9584H12.7751C12.4334 18.9584 12.1501 18.675 12.1501 18.3334V14.1667C12.1501 13.825 12.4334 13.5417 12.7751 13.5417H16.6667C17.9334 13.5417 18.9584 14.5667 18.9584 15.8334V18.3334C18.9584 18.675 18.6751 18.9584 18.3334 18.9584ZM13.4001 17.7084H17.7084V15.8334C17.7084 15.2584 17.2417 14.7917 16.6667 14.7917H13.4001V17.7084Z" />
<path d="M18.3334 18.9584H12.7751C12.4334 18.9584 12.1501 18.675 12.1501 18.3334V14.1667C12.1501 13.825 12.4334 13.5417 12.7751 13.5417H16.6667C17.9334 13.5417 18.9584 14.5667 18.9584 15.8334V18.3334C18.9584 18.675 18.6751 18.9584 18.3334 18.9584ZM13.4001 17.7084H17.7084V15.8334C17.7084 15.2584 17.2417 14.7917 16.6667 14.7917H13.4001V17.7084Z" fill-opacity="0.2"/>
<path d="M11.4166 6.9583C11.2166 6.9583 10.9666 6.89995 10.6832 6.73328L9.9999 6.32496L9.3249 6.72497C8.64157 7.1333 8.19157 6.89163 8.0249 6.77497C7.85823 6.6583 7.4999 6.29163 7.6749 5.52497L7.83323 4.83329L7.26657 4.26663C6.91657 3.91663 6.79157 3.49995 6.91657 3.11662C7.04157 2.73329 7.38323 2.46662 7.86657 2.38328L8.59157 2.25829L8.9999 1.44164C9.4499 0.549971 10.5416 0.549971 10.9832 1.44164L11.3916 2.25829L12.1166 2.38328C12.5999 2.46662 12.9499 2.73329 13.0666 3.11662C13.1916 3.49995 13.0582 3.91663 12.7166 4.26663L12.1499 4.83329L12.3082 5.52497C12.4832 6.29997 12.1249 6.65831 11.9582 6.78331C11.8832 6.84998 11.6916 6.9583 11.4166 6.9583ZM9.9999 5.06662C10.1999 5.06662 10.3999 5.11664 10.5666 5.21664L11.0332 5.49163L10.9332 5.04162C10.8499 4.69162 10.9749 4.26663 11.2332 4.00829L11.6582 3.58329L11.1332 3.49163C10.7999 3.4333 10.4749 3.19163 10.3249 2.89163L9.9999 2.26663L9.68323 2.89163C9.53323 3.19163 9.20823 3.4333 8.8749 3.49163L8.3499 3.57497L8.7749 3.99995C9.03323 4.25829 9.1499 4.6833 9.0749 5.0333L8.9749 5.48328L9.44157 5.2083C9.5999 5.1083 9.7999 5.06662 9.9999 5.06662Z" />
<path d="M11.4166 6.9583C11.2166 6.9583 10.9666 6.89995 10.6832 6.73328L9.9999 6.32496L9.3249 6.72497C8.64157 7.1333 8.19157 6.89163 8.0249 6.77497C7.85823 6.6583 7.4999 6.29163 7.6749 5.52497L7.83323 4.83329L7.26657 4.26663C6.91657 3.91663 6.79157 3.49995 6.91657 3.11662C7.04157 2.73329 7.38323 2.46662 7.86657 2.38328L8.59157 2.25829L8.9999 1.44164C9.4499 0.549971 10.5416 0.549971 10.9832 1.44164L11.3916 2.25829L12.1166 2.38328C12.5999 2.46662 12.9499 2.73329 13.0666 3.11662C13.1916 3.49995 13.0582 3.91663 12.7166 4.26663L12.1499 4.83329L12.3082 5.52497C12.4832 6.29997 12.1249 6.65831 11.9582 6.78331C11.8832 6.84998 11.6916 6.9583 11.4166 6.9583ZM9.9999 5.06662C10.1999 5.06662 10.3999 5.11664 10.5666 5.21664L11.0332 5.49163L10.9332 5.04162C10.8499 4.69162 10.9749 4.26663 11.2332 4.00829L11.6582 3.58329L11.1332 3.49163C10.7999 3.4333 10.4749 3.19163 10.3249 2.89163L9.9999 2.26663L9.68323 2.89163C9.53323 3.19163 9.20823 3.4333 8.8749 3.49163L8.3499 3.57497L8.7749 3.99995C9.03323 4.25829 9.1499 4.6833 9.0749 5.0333L8.9749 5.48328L9.44157 5.2083C9.5999 5.1083 9.7999 5.06662 9.9999 5.06662Z"  fill-opacity="0.2"/>
</svg>
