<svg width="16" height="16" viewBox="0 0 16 16" xmlns="http://www.w3.org/2000/svg">
<path d="M14.6666 4.83337H10.6666C10.3933 4.83337 10.1666 4.60671 10.1666 4.33337C10.1666 4.06004 10.3933 3.83337 10.6666 3.83337H14.6666C14.94 3.83337 15.1666 4.06004 15.1666 4.33337C15.1666 4.60671 14.94 4.83337 14.6666 4.83337Z" />
<path d="M4.00004 4.83337H1.33337C1.06004 4.83337 0.833374 4.60671 0.833374 4.33337C0.833374 4.06004 1.06004 3.83337 1.33337 3.83337H4.00004C4.27337 3.83337 4.50004 4.06004 4.50004 4.33337C4.50004 4.60671 4.27337 4.83337 4.00004 4.83337Z" />
<path d="M6.66671 7.16667C5.10671 7.16667 3.83337 5.89333 3.83337 4.33333C3.83337 2.77333 5.10671 1.5 6.66671 1.5C8.22671 1.5 9.50004 2.77333 9.50004 4.33333C9.50004 5.89333 8.22671 7.16667 6.66671 7.16667ZM6.66671 2.5C5.65337 2.5 4.83337 3.32 4.83337 4.33333C4.83337 5.34667 5.65337 6.16667 6.66671 6.16667C7.68004 6.16667 8.50004 5.34667 8.50004 4.33333C8.50004 3.32 7.68004 2.5 6.66671 2.5Z" />
<path d="M14.6667 12.1666H12C11.7267 12.1666 11.5 11.94 11.5 11.6666C11.5 11.3933 11.7267 11.1666 12 11.1666H14.6667C14.94 11.1666 15.1667 11.3933 15.1667 11.6666C15.1667 11.94 14.94 12.1666 14.6667 12.1666Z" />
<path d="M5.33337 12.1666H1.33337C1.06004 12.1666 0.833374 11.94 0.833374 11.6666C0.833374 11.3933 1.06004 11.1666 1.33337 11.1666H5.33337C5.60671 11.1666 5.83337 11.3933 5.83337 11.6666C5.83337 11.94 5.60671 12.1666 5.33337 12.1666Z" />
<path d="M9.33333 14.5C7.77333 14.5 6.5 13.2267 6.5 11.6667C6.5 10.1067 7.77333 8.83337 9.33333 8.83337C10.8933 8.83337 12.1667 10.1067 12.1667 11.6667C12.1667 13.2267 10.8933 14.5 9.33333 14.5ZM9.33333 9.83337C8.32 9.83337 7.5 10.6534 7.5 11.6667C7.5 12.68 8.32 13.5 9.33333 13.5C10.3467 13.5 11.1667 12.68 11.1667 11.6667C11.1667 10.6534 10.3467 9.83337 9.33333 9.83337Z" />
</svg>
