<svg width="16" height="16" viewBox="0 0 16 16" xmlns="http://www.w3.org/2000/svg">
<path d="M8.0001 15.1666C7.55343 15.1666 7.1001 15.0533 6.7001 14.8199L2.7401 12.5333C1.9401 12.0666 1.4401 11.2066 1.4401 10.2799V5.71995C1.4401 4.79329 1.9401 3.93328 2.7401 3.46662L6.7001 1.17996C7.5001 0.713289 8.49343 0.713289 9.3001 1.17996L13.2601 3.46662C14.0601 3.93328 14.5601 4.79329 14.5601 5.71995V10.2799C14.5601 11.2066 14.0601 12.0666 13.2601 12.5333L9.3001 14.8199C8.9001 15.0533 8.44677 15.1666 8.0001 15.1666ZM8.0001 1.83328C7.72677 1.83328 7.44677 1.90661 7.2001 2.04661L3.2401 4.33328C2.74677 4.61994 2.4401 5.14662 2.4401 5.71995V10.2799C2.4401 10.8466 2.74677 11.3799 3.2401 11.6666L7.2001 13.9533C7.69343 14.2399 8.30677 14.2399 8.8001 13.9533L12.7601 11.6666C13.2534 11.3799 13.5601 10.8533 13.5601 10.2799V5.71995C13.5601 5.15329 13.2534 4.61994 12.7601 4.33328L8.8001 2.04661C8.55343 1.90661 8.27343 1.83328 8.0001 1.83328Z" />
<path d="M7.99995 7.83333C6.86662 7.83333 5.94662 6.91332 5.94662 5.77999C5.94662 4.64666 6.86662 3.72668 7.99995 3.72668C9.13328 3.72668 10.0533 4.64666 10.0533 5.77999C10.0533 6.91332 9.13328 7.83333 7.99995 7.83333ZM7.99995 4.72668C7.41995 4.72668 6.94662 5.19999 6.94662 5.77999C6.94662 6.35999 7.41995 6.83333 7.99995 6.83333C8.57995 6.83333 9.05328 6.35999 9.05328 5.77999C9.05328 5.19999 8.57995 4.72668 7.99995 4.72668Z" />
<path d="M10.6667 11.6068C10.3933 11.6068 10.1667 11.3801 10.1667 11.1068C10.1667 10.1868 9.19334 9.43347 8 9.43347C6.80667 9.43347 5.83334 10.1868 5.83334 11.1068C5.83334 11.3801 5.60667 11.6068 5.33334 11.6068C5.06 11.6068 4.83334 11.3801 4.83334 11.1068C4.83334 9.63344 6.25334 8.43347 8 8.43347C9.74667 8.43347 11.1667 9.63344 11.1667 11.1068C11.1667 11.3801 10.94 11.6068 10.6667 11.6068Z" />
</svg>
