<svg width="12" height="12" viewBox="0 0 12 12" xmlns="http://www.w3.org/2000/svg">
<path d="M8.69 10.375H5.455C5.25 10.375 5.08 10.205 5.08 9.99998C5.08 9.79498 5.25 9.62498 5.455 9.62498H8.69C10.22 9.62498 10.58 9.37498 10.62 8.01498C9.96 7.84498 9.47 7.24498 9.47 6.53498C9.47 5.81998 9.96 5.21498 10.625 5.04498V4.91498C10.625 3.26998 10.335 2.97998 8.69 2.97998H5.875V5.99998C5.875 6.20498 5.705 6.37498 5.5 6.37498C5.295 6.37498 5.125 6.20498 5.125 5.99998V2.60498C5.125 2.39998 5.295 2.22998 5.5 2.22998H8.69C10.75 2.22998 11.375 2.85498 11.375 4.91498V5.37498C11.375 5.57998 11.205 5.74998 11 5.74998C10.57 5.74998 10.22 6.09998 10.22 6.53498C10.22 6.96498 10.57 7.31498 11 7.31498C11.205 7.31498 11.375 7.48498 11.375 7.68998C11.375 9.74998 10.75 10.375 8.69 10.375Z" />
<path d="M5.5 10.375H4.115C3.105 10.375 2.585 9.61499 2.11 8.47499L2.015 8.24499C1.98 8.15499 1.98 8.04999 2.02 7.95999C2.06 7.86999 2.135 7.79499 2.225 7.75999C2.425 7.67999 2.58 7.52499 2.665 7.32999C2.75 7.12999 2.75 6.90999 2.665 6.70999C2.5 6.28999 2.025 6.09499 1.605 6.25999C1.51 6.29999 1.41 6.29499 1.315 6.25499C1.225 6.21499 1.15 6.13999 1.115 6.04999L1.03 5.83499C0.230004 3.88999 0.580004 3.05499 2.525 2.24999L3.845 1.70999C4.035 1.62999 4.255 1.72499 4.335 1.91499L5.85 5.58499C5.87 5.62999 5.88 5.67999 5.88 5.72999V6.99999C5.88 7.20499 5.71 7.37499 5.505 7.37499C5.3 7.37499 5.13 7.20499 5.13 6.99999V5.79999L3.78 2.54499L2.81 2.94499C1.27 3.57999 1.085 3.96999 1.69 5.46999C2.385 5.36999 3.085 5.74499 3.36 6.41999C3.52 6.80499 3.52 7.22999 3.355 7.61499C3.245 7.87999 3.065 8.10499 2.835 8.26999C3.315 9.39999 3.665 9.62499 4.11 9.62499H5.12V8.49999C5.12 8.29499 5.29 8.12499 5.495 8.12499C5.7 8.12499 5.87 8.29499 5.87 8.49999V9.99999C5.875 10.205 5.705 10.375 5.5 10.375Z" />
<path d="M4.085 10.375H4C3.795 10.375 3.625 10.205 3.625 10C3.625 9.795 3.795 9.625 4 9.625H4.085C4.29 9.625 4.46 9.795 4.46 10C4.46 10.205 4.29 10.375 4.085 10.375Z" />
</svg>
